# xmcd CD database file
#
# Track frame offsets:
#	150
#	18372
#	37077
#
# Disc length: 735 seconds
#
# Revision: 0
# Processed by: cddbd v1.5.1PL0 Copyright (c) Steve Scherf et al.
# Submitted via: CDex 1.51
#
DISCID=1d02dd03
DTITLE=西田彩栞 - どうなっちゃってるの どうだっていいんじゃない
DYEAR=1900
DGENRE=JPop
TTITLE0=どうなっちゃってるの どうだっていいんじゃない
TTITLE1=どうなっちゃってるの どうだっていいんじゃない(Remix)
TTITLE2=どうなっちゃってるの どうだっていいじゃない(Instrumental)
EXTD=
EXTT0=
EXTT1=
EXTT2=
PLAYORDER=
